#!OML:ASF F:\VICON\USERDATA\INSTALL\rory3\rory3.ASF
:FULLY-SPECIFIED
:DEGREES
33
root -0.486928 16.1133 -21.5548 3.63376 2.58391 5.70549
lowerback 13.1959 -0.637491 -9.85272
upperback -5.03071 -2.53216 1.34312
thorax -12.6135 -0.3132 7.68702
lowerneck -8.55675 -5.13746 -4.52301
upperneck 15.8486 -7.03705 4.08069
head 6.5336 -3.35554 1.45717
rclavicle -5.76476e-015 1.03368e-014
rhumerus -52.9331 -17.7051 -66.2969
rradius 16.0509
rwrist 14.0692
rhand -7.01342 19.4674
rfingers 7.12502
rthumb 18.8579 -9.63845
lclavicle -5.76476e-015 1.03368e-014
lhumerus -31.9302 5.09411 86.0852
lradius 25.9219
lwrist 1.78582
lhand -5.93544 17.6893
lfingers 7.12502
lthumb 19.8944 46.6911
rfemur -34.1546 17.6248 9.83889
rtibia 29.6904
rfoot -3.81982 -14.8639
rtoes 6.58428
lfemur 23.1133 -10.5385 -32.3389
ltibia 9.54166e-015
lfoot -8.63028 2.96769
ltoes -2.60791
34
root -0.520796 16.1142 -21.4018 3.54577 2.59069 5.47541
lowerback 13.0714 -0.669081 -9.70674
upperback -4.96035 -2.51903 1.43651
thorax -12.4569 -0.327416 7.69715
lowerneck -8.61189 -5.14089 -4.51639
upperneck 15.8233 -7.02807 4.01422
head 6.53212 -3.35537 1.43456
rclavicle 6.00081e-015 2.94201e-014
rhumerus -53.0281 -18.0821 -65.8457
rradius 15.8838
rwrist 14.0466
rhand -6.46417 18.3439
rfingers 7.12502
rthumb 19.3861 -10.7098
lclavicle 6.00081e-015 2.94201e-014
lhumerus -32.3703 5.63834 85.8005
lradius 25.3847
lwrist 1.30885
lhand -6.08605 17.6147
lfingers 7.12502
lthumb 19.7496 46.6314
rfemur -33.8273 17.1293 10.6578
rtibia 30.3067
rfoot -3.03555 -14.3914
rtoes 6.03184
lfemur 23.6699 -10.2282 -31.9042
ltibia -2.22639e-014
lfoot -7.8341 2.66133
ltoes -3.46357
35
root -0.557666 16.1225 -21.2581 3.57716 2.61586 5.29785
lowerback 12.9309 -0.686483 -9.64075
upperback -4.90313 -2.50391 1.50663
thorax -12.3063 -0.334426 7.72571
lowerneck -8.92627 -5.08609 -4.44137
upperneck 15.8853 -6.9551 4.01783
head 6.60075 -3.31011 1.42163
rclavicle -6.1996e-015 1.27222e-014
rhumerus -53.0895 -18.6148 -65.245
rradius 15.5687
rwrist 14.4668
rhand -6.20603 18.3041
rfingers 7.12502
rthumb 19.6343 -10.7244
lclavicle -6.1996e-015 1.27222e-014
lhumerus -32.7044 6.0085 85.593
lradius 24.8729
lwrist 1.05481
lhand -6.21403 17.707
lfingers 7.12502
lthumb 19.6266 46.7363
rfemur -33.6525 16.8431 11.3014
rtibia 30.9128
rfoot -2.75353 -14.0461
rtoes 4.84394
lfemur 24.0195 -9.9705 -31.4754
ltibia -2.22639e-014
lfoot -6.86591 2.37232
ltoes -4.14574
36
root -0.591153 16.1337 -21.105 3.4146 2.71287 5.07739
lowerback 13.011 -0.764723 -9.56916
upperback -4.89371 -2.58568 1.66845
thorax -12.3213 -0.369457 7.89006
lowerneck -9.03657 -4.97847 -4.361
upperneck 15.937 -6.77892 3.79137
head 6.6178 -3.23662 1.34948
rclavicle 1.26601e-014 2.38542e-015
rhumerus -53.2667 -18.9065 -64.5419
rradius 15.2011
rwrist 15.0691
rhand -6.20392 18.4106
rfingers 7.12502
rthumb 19.6363 -10.6177
lclavicle 1.26601e-014 2.38542e-015
lhumerus -33.2926 6.67048 85.3836
lradius 24.5135
lwrist 0.947329
lhand -5.94524 18.4961
lfingers 7.12502
lthumb 19.885 47.4988
rfemur -33.143 16.6386 12.054
rtibia 31.4901
rfoot -2.70878 -13.7593
rtoes 1.81377
lfemur 24.6066 -9.74489 -31.0365
ltibia -1.90833e-014
lfoot -5.72472 2.15164
ltoes -4.56015
37
root -0.61667 16.1411 -20.9417 3.16259 2.60463 4.98031
lowerback 13.05 -0.72371 -9.4861
upperback -4.88321 -2.51318 1.71601
thorax -12.3478 -0.337848 7.88256
lowerneck -8.76148 -4.9778 -4.41808
upperneck 15.9972 -6.76727 3.70256
head 6.58753 -3.24528 1.33791
rclavicle 2.24751e-014 6.36111e-015
rhumerus -53.6506 -19.3367 -63.8427
rradius 14.9901
rwrist 15.4126
rhand -6.1141 18.0929
rfingers 7.12502
rthumb 19.7227 -10.9265
lclavicle 2.24751e-014 6.36111e-015
lhumerus -33.9239 7.18056 85.1276
lradius 24.1089
lwrist 0.755004
lhand -5.6593 19.3228
lfingers 7.12502
lthumb 20.1598 48.2968
rfemur -32.5451 16.4272 12.697
rtibia 32.0901
rfoot -2.85948 -13.2338
rtoes 1.02795
lfemur 23.5048 -9.25956 -30.7998
ltibia 3.17182
lfoot -5.87969 1.75244
ltoes -5.00135
38
root -0.646846 16.1456 -20.7936 3.06288 2.54775 4.80723
lowerback 13.1089 -0.691127 -9.34275
upperback -4.91556 -2.44754 1.74199
thorax -12.4368 -0.309798 7.82008
lowerneck -8.56296 -5.00993 -4.42762
upperneck 16.0622 -6.81976 3.69759
head 6.57612 -3.27416 1.33764
rclavicle 1.2275e-014 -2.70347e-014
rhumerus -54.0713 -19.5838 -63.4562
rradius 14.9806
rwrist 15.4872
rhand -5.90759 17.8259
rfingers 7.12502
rthumb 19.9212 -11.1731
lclavicle 1.2275e-014 -2.70347e-014
lhumerus -34.4401 7.59481 84.8267
lradius 23.6943
lwrist 0.692886
lhand -5.6883 19.9038
lfingers 7.12502
lthumb 20.132 48.8807
rfemur -32.1349 16.2185 13.3546
rtibia 32.6792
rfoot -3.1487 -12.8108
rtoes 0.0684236
lfemur 20.9438 -8.83372 -30.4047
ltibia 8.44276
lfoot -6.62477 1.17243
ltoes -4.94358
39
root -0.684891 16.1486 -20.6581 3.03221 2.87228 4.82678
lowerback 13.3824 -0.690642 -9.35598
upperback -4.94166 -2.48788 1.6647
thorax -12.6279 -0.317646 7.76501
lowerneck -8.90686 -5.08528 -4.22031
upperneck 16.2678 -6.93901 3.63524
head 6.69726 -3.31785 1.26295
rclavicle -1.48219e-014 -1.19271e-014
rhumerus -54.205 -20.1042 -63.0757
rradius 14.7627
rwrist 15.9058
rhand -5.98642 17.9319
rfingers 7.12502
rthumb 19.8454 -11.0749
lclavicle -1.48219e-014 -1.19271e-014
lhumerus -34.7877 7.82727 84.5483
lradius 23.2938
lwrist 0.459236
lhand -5.57676 20.7912
lfingers 7.12502
lthumb 20.2392 49.7568
rfemur -31.7583 16.0199 13.7181
rtibia 33.3138
rfoot -3.88148 -12.7592
rtoes 0.99616
lfemur 19.2692 -8.83898 -30.0828
ltibia 11.8397
lfoot -6.27557 0.780481
ltoes -5.43491
40
root -0.718926 16.1556 -20.5116 2.88968 3.12594 4.78677
lowerback 13.5635 -0.688868 -9.27124
upperback -4.97202 -2.49777 1.5959
thorax -12.7761 -0.321785 7.65159
lowerneck -9.14258 -5.1204 -4.18822
upperneck 16.5003 -7.02448 3.81024
head 6.82183 -3.33758 1.29754
rclavicle 1.36416e-014 9.54166e-015
rhumerus -54.4075 -21.3501 -61.8336
rradius 14.0192
rwrist 17.3614
rhand -6.46431 18.7551
rfingers 7.12502
rthumb 19.386 -10.2985
lclavicle 1.36416e-014 9.54166e-015
lhumerus -35.3801 8.32438 84.044
lradius 22.547
lwrist -0.681808
lhand -5.47563 20.7042
lfingers 7.12502
lthumb 20.3364 49.6594
rfemur -31.2085 15.929 14.1681
rtibia 33.8602
rfoot -4.70901 -12.6508
rtoes 1.02972
lfemur 17.7224 -8.08718 -29.4604
ltibia 15.083
lfoot -5.65264 -0.201975
ltoes -5.98734
41
root -0.747896 16.1568 -20.356 2.66953 3.10304 4.82744
lowerback 13.4366 -0.704252 -9.33868
upperback -4.92693 -2.51599 1.59467
thorax -12.641 -0.335689 7.68405
lowerneck -8.8785 -5.03124 -4.48994
upperneck 16.4136 -6.92334 4.16165
head 6.76683 -3.28342 1.47541
rclavicle -8.44835e-016 0
rhumerus -54.3973 -21.7749 -61.2342
rradius 13.5405
rwrist 18.0376
rhand -6.67677 19.2187
rfingers 7.12502
rthumb 19.1817 -9.85532
lclavicle -8.44835e-016 0
lhumerus -36.0497 9.52883 83.2386
lradius 21.4031
lwrist -2.42264
lhand -5.70882 19.0165
lfingers 7.12502
lthumb 20.1122 47.9955
rfemur -30.5929 15.8359 14.5834
rtibia 34.3221
rfoot -5.23206 -12.292
rtoes -0.70031
lfemur 16.4823 -7.22502 -29.0686
ltibia 18.159
lfoot -4.88161 -0.909644
ltoes -7.56152
42
root -0.783578 16.1592 -20.2098 2.50069 3.20205 4.56684
lowerback 13.3393 -0.730728 -9.11963
upperback -4.81809 -2.49099 1.62894
thorax -12.4626 -0.355865 7.58188
lowerneck -8.64508 -5.01236 -4.51759
upperneck 16.3313 -6.921 4.28926
head 6.70494 -3.27797 1.52735
rclavicle 1.00635e-014 2.46493e-014
rhumerus -54.1303 -21.7691 -61.5261
rradius 13.488
rwrist 17.7177
rhand -6.65932 18.9628
rfingers 7.12502
rthumb 19.1984 -10.1096
lclavicle 1.00635e-014 2.46493e-014
lhumerus -36.3925 9.95314 82.7839
lradius 20.5882
lwrist -3.07096
lhand -5.99973 18.0062
lfingers 7.12502
lthumb 19.8326 47.0143
rfemur -29.9159 15.8684 15.3042
rtibia 34.5838
rfoot -5.75737 -12.2584
rtoes -2.07603
lfemur 15.2046 -6.47521 -28.263
ltibia 21.171
lfoot -3.77329 -1.72126
ltoes -7.71345
43
root -0.823225 16.1684 -20.0693 2.39561 3.31864 4.30378
lowerback 13.3175 -0.718236 -8.94041
upperback -4.72431 -2.43193 1.64619
thorax -12.3548 -0.351854 7.48059
lowerneck -8.81414 -5.11064 -4.35335
upperneck 16.4732 -7.06897 4.21971
head 6.77845 -3.34092 1.45961
rclavicle 3.26007e-014 -3.97569e-015
rhumerus -54.1123 -23.1644 -60.3945
rradius 12.9813
rwrist 19.3311
rhand -6.56858 19.0517
rfingers 7.12502
rthumb 19.2857 -10.012
lclavicle 3.26007e-014 -3.97569e-015
lhumerus -36.7227 10.2207 82.3936
lradius 20.0137
lwrist -3.73591
lhand -6.07583 18.01
lfingers 7.12502
lthumb 19.7595 47.0257
rfemur -29.1668 15.9511 15.9952
rtibia 34.7011
rfoot -6.39669 -12.2425
rtoes -1.6781
lfemur 13.6904 -5.75464 -27.3906
ltibia 24.2599
lfoot -2.41525 -2.60517
ltoes -7.67033
44
root -0.857357 16.1796 -19.9319 2.40823 3.24447 3.94179
lowerback 13.3032 -0.69347 -8.6977
upperback -4.77617 -2.34208 1.75259
thorax -12.425 -0.31714 7.44321
lowerneck -8.94835 -5.18455 -4.34523
upperneck 16.666 -7.16991 4.18605
head 6.86706 -3.38801 1.43312
rclavicle -9.98893e-015 3.97569e-016
rhumerus -53.9496 -23.42 -60.1767
rradius 12.7855
rwrist 19.7695
rhand -6.52787 19.0327
rfingers 7.12502
rthumb 19.3248 -10.0271
lclavicle -9.98893e-015 3.97569e-016
lhumerus -37.3607 10.9397 81.8385
lradius 19.4916
lwrist -4.80127
lhand -5.96826 17.8559
lfingers 7.12502
lthumb 19.8629 46.8609
rfemur -28.508 15.8709 16.7777
rtibia 34.6128
rfoot -6.71447 -12.0117
rtoes -2.49992
lfemur 11.8569 -4.88784 -26.4286
ltibia 27.5302
lfoot -0.61682 -3.24249
ltoes -6.22647
45
root -0.890535 16.1865 -19.7971 2.48412 3.15868 3.62155
lowerback 13.3265 -0.689412 -8.58949
upperback -4.95902 -2.30748 1.91669
thorax -12.6554 -0.279902 7.56833
lowerneck -8.77884 -5.14806 -4.50056
upperneck 16.8669 -7.12115 4.23946
head 6.90745 -3.37114 1.4828
rclavicle 3.90115e-015 4.77083e-015
rhumerus -53.6467 -22.3391 -61.1274
rradius 13.0412
rwrist 18.6645
rhand -6.44403 19.2109
rfingers 7.12502
rthumb 19.4055 -9.84078
lclavicle 3.90115e-015 4.77083e-015
lhumerus -38.0987 11.7828 81.2755
lradius 18.7822
lwrist -5.75679
lhand -5.96003 17.287
lfingers 7.12502
lthumb 19.8708 46.2912
rfemur -27.9161 15.6338 17.4814
rtibia 34.3807
rfoot -7.0398 -11.639
rtoes -2.90486
lfemur 9.92812 -4.08215 -25.5613
ltibia 30.8821
lfoot 1.49706 -3.54337
ltoes -3.52343
46
root -0.919274 16.2009 -19.6611 2.60866 3.1646 3.34103
lowerback 13.171 -0.691489 -8.30624
upperback -5.01566 -2.24233 1.94405
thorax -12.6436 -0.270319 7.41578
lowerneck -8.89005 -5.15891 -4.59736
upperneck 17.0649 -7.1614 4.43433
head 7.00359 -3.3769 1.55289
rclavicle 1.11816e-015 -2.5842e-014
rhumerus -53.2732 -22.5068 -61.3483
rradius 12.9545
rwrist 18.7841
rhand -6.6769 19.4016
rfingers 7.12502
rthumb 19.1815 -9.67249
lclavicle 1.11816e-015 -2.5842e-014
lhumerus -38.3726 12.6876 80.5334
lradius 17.9061
lwrist -6.76844
lhand -5.91941 17.1532
lfingers 7.12502
lthumb 19.9098 46.1533
rfemur -27.2536 15.4617 18.0764
rtibia 33.9932
rfoot -7.42576 -11.345
rtoes -2.35944
lfemur 7.93638 -3.42288 -24.7942
ltibia 34.242
lfoot 3.3079 -3.90987
ltoes -3.56012
47
root -0.946517 16.22 -19.5305 2.74908 2.96275 3.0976
lowerback 12.9895 -0.539282 -7.99671
upperback -4.98705 -1.97023 1.87906
thorax -12.5584 -0.177437 7.09305
lowerneck -9.27262 -5.29353 -4.24105
upperneck 17.0955 -7.36389 4.28735
head 7.07145 -3.45689 1.4183
rclavicle -1.6847e-014 5.96354e-015
rhumerus -53.0017 -23.6728 -60.8786
rradius 12.7248
rwrist 19.8517
rhand -6.88276 19.0192
rfingers 7.12502
rthumb 18.9836 -10.0744
lclavicle -1.6847e-014 5.96354e-015
lhumerus -38.4518 12.9294 80.1125
lradius 17.4315
lwrist -7.45202
lhand -5.75823 17.2862
lfingers 7.12502
lthumb 20.0648 46.2702
rfemur -26.6558 15.3959 18.5953
rtibia 33.5726
rfoot -7.64734 -10.9458
rtoes -1.5563
lfemur 5.91368 -2.64609 -24.1482
ltibia 37.4766
lfoot 4.7152 -4.25488
ltoes -8.14521
